<?xml version="1.0" encoding="UTF-8" standalone="no"?>
<!-- Created with Inkscape (http://www.inkscape.org/) -->

<svg
   xmlns:dc="http://purl.org/dc/elements/1.1/"
   xmlns:cc="http://creativecommons.org/ns#"
   xmlns:rdf="http://www.w3.org/1999/02/22-rdf-syntax-ns#"
   xmlns:svg="http://www.w3.org/2000/svg"
   xmlns="http://www.w3.org/2000/svg"
   xmlns:sodipodi="http://sodipodi.sourceforge.net/DTD/sodipodi-0.dtd"
   xmlns:inkscape="http://www.inkscape.org/namespaces/inkscape"
   width="240"
   height="70"
   viewBox="0 0 240 70.000001"
   id="svg5762"
   version="1.1"
   inkscape:version="0.91 r13725"
   sodipodi:docname="logo-text.svg">
  <defs
     id="defs5764" />
  <sodipodi:namedview
     id="base"
     pagecolor="#ffffff"
     bordercolor="#666666"
     borderopacity="1.0"
     inkscape:pageopacity="0.0"
     inkscape:pageshadow="2"
     inkscape:zoom="1.4"
     inkscape:cx="63.035221"
     inkscape:cy="65.475415"
     inkscape:document-units="px"
     inkscape:current-layer="layer1"
     showgrid="false"
     units="px"
     inkscape:window-width="1280"
     inkscape:window-height="709"
     inkscape:window-x="0"
     inkscape:window-y="0"
     inkscape:window-maximized="1" />
  <metadata
     id="metadata5767">
    <rdf:RDF>
      <cc:Work
         rdf:about="">
        <dc:format>image/svg+xml</dc:format>
        <dc:type
           rdf:resource="http://purl.org/dc/dcmitype/StillImage" />
        <dc:title />
      </cc:Work>
    </rdf:RDF>
  </metadata>
  <g
     inkscape:label="Layer 1"
     inkscape:groupmode="layer"
     id="layer1"
     transform="translate(0,-982.36216)">
    <g
       transform="matrix(1.0005244,0,0,1.0036892,-338.73953,720.31268)"
       style="font-style:normal;font-weight:normal;font-size:97.57592773px;line-height:125%;font-family:sans-serif;letter-spacing:0px;word-spacing:0px;fill:#333333;fill-opacity:1;stroke:none;stroke-width:1px;stroke-linecap:butt;stroke-linejoin:miter;stroke-opacity:1"
       id="text5292">
      <path
         inkscape:connector-curvature="0"
         id="path5759-3"
         style="font-style:normal;font-variant:normal;font-weight:300;font-stretch:normal;font-size:87.5px;font-family:Ubuntu;-inkscape-font-specification:'Ubuntu Light';fill:#333333;fill-opacity:1"
         d="m 562.68777,325.62606 c 2.21667,0 4.14167,-0.0583 5.775,-0.175 1.69167,-0.175 3.12083,-0.37917 4.2875,-0.6125 l 0,-15.925 c -0.64167,-0.29167 -1.6625,-0.58333 -3.0625,-0.875 -1.4,-0.35 -3.325,-0.525 -5.775,-0.525 -1.4,0 -2.85833,0.11667 -4.375,0.35 -1.51667,0.175 -2.91667,0.6125 -4.2,1.3125 -1.28333,0.64167 -2.33333,1.54583 -3.15,2.7125 -0.81667,1.16667 -1.225,2.7125 -1.225,4.6375 0,1.69167 0.2625,3.12083 0.7875,4.2875 0.58333,1.16667 1.37083,2.1 2.3625,2.8 1.05,0.7 2.275,1.225 3.675,1.575 1.45833,0.29167 3.09167,0.4375 4.9,0.4375 z m -0.525,-42.175 c 2.975,0 5.48333,0.4375 7.525,1.3125 2.1,0.81667 3.79167,1.98333 5.075,3.5 1.28333,1.45833 2.21667,3.20833 2.8,5.25 0.58333,2.04167 0.875,4.25833 0.875,6.65 l 0,28.525 c -0.58333,0.175 -1.42917,0.37917 -2.5375,0.6125 -1.10833,0.175 -2.39167,0.37917 -3.85,0.6125 -1.45833,0.23333 -3.09167,0.40833 -4.9,0.525 -1.75,0.175 -3.55833,0.2625 -5.425,0.2625 -2.39167,0 -4.60833,-0.2625 -6.65,-0.7875 -1.98333,-0.525 -3.73333,-1.34167 -5.25,-2.45 -1.45833,-1.16667 -2.625,-2.625 -3.5,-4.375 -0.81667,-1.80833 -1.225,-3.99583 -1.225,-6.5625 0,-2.45 0.46667,-4.55 1.4,-6.3 0.93333,-1.75 2.24583,-3.17917 3.9375,-4.2875 1.69167,-1.16667 3.70417,-2.0125 6.0375,-2.5375 2.33333,-0.525 4.87083,-0.7875 7.6125,-0.7875 0.81667,0 1.6625,0.0583 2.5375,0.175 0.93333,0.0583 1.80833,0.175 2.625,0.35 0.875,0.11667 1.60417,0.2625 2.1875,0.4375 0.64167,0.11667 1.07917,0.23333 1.3125,0.35 l 0,-2.8 c 0,-1.575 -0.11667,-3.09167 -0.35,-4.55 -0.23333,-1.51667 -0.75833,-2.85833 -1.575,-4.025 -0.75833,-1.225 -1.86667,-2.1875 -3.325,-2.8875 -1.4,-0.75833 -3.26667,-1.1375 -5.6,-1.1375 -3.325,0 -5.80417,0.23333 -7.4375,0.7 -1.63333,0.46667 -2.82917,0.84583 -3.5875,1.1375 l -0.7875,-4.9875 c 0.99167,-0.46667 2.50833,-0.90417 4.55,-1.3125 2.1,-0.40833 4.60833,-0.6125 7.525,-0.6125 z m -41.88926,42.2625 c 3.26667,0 5.95,-0.525 8.05,-1.575 2.15833,-1.10833 3.2375,-2.94583 3.2375,-5.5125 0,-1.225 -0.20417,-2.275 -0.6125,-3.15 -0.35,-0.875 -0.9625,-1.6625 -1.8375,-2.3625 -0.875,-0.7 -2.04167,-1.37083 -3.5,-2.0125 -1.4,-0.64167 -3.15,-1.4 -5.25,-2.275 -1.69167,-0.7 -3.29583,-1.4 -4.8125,-2.1 -1.51667,-0.75833 -2.85833,-1.60417 -4.025,-2.5375 -1.16667,-0.99167 -2.1,-2.15833 -2.8,-3.5 -0.7,-1.34167 -1.05,-2.975 -1.05,-4.9 0,-3.675 1.37083,-6.65 4.1125,-8.925 2.8,-2.275 6.62083,-3.4125 11.4625,-3.4125 3.09167,0 5.62917,0.2625 7.6125,0.7875 2.04167,0.525 3.47083,0.99167 4.2875,1.4 l -1.3125,5.075 c -0.7,-0.35 -1.89583,-0.81667 -3.5875,-1.4 -1.63333,-0.58333 -4.05417,-0.875 -7.2625,-0.875 -1.28333,0 -2.50833,0.14583 -3.675,0.4375 -1.10833,0.23333 -2.1,0.64167 -2.975,1.225 -0.875,0.525 -1.575,1.225 -2.1,2.1 -0.525,0.81667 -0.7875,1.8375 -0.7875,3.0625 0,1.225 0.23333,2.275 0.7,3.15 0.46667,0.875 1.1375,1.6625 2.0125,2.3625 0.93333,0.64167 2.04167,1.25417 3.325,1.8375 1.34167,0.58333 2.85833,1.225 4.55,1.925 1.75,0.7 3.4125,1.42917 4.9875,2.1875 1.63333,0.7 3.0625,1.575 4.2875,2.625 1.225,0.99167 2.21667,2.21667 2.975,3.675 0.75833,1.4 1.1375,3.17917 1.1375,5.3375 0,4.08333 -1.54583,7.175 -4.6375,9.275 -3.03333,2.1 -7.20417,3.15 -12.5125,3.15 -3.96667,0 -7,-0.35 -9.1,-1.05 -2.1,-0.64167 -3.5,-1.1375 -4.2,-1.4875 l 1.4875,-5.1625 c 0.175,0.11667 0.55417,0.32083 1.1375,0.6125 0.58333,0.23333 1.37083,0.525 2.3625,0.875 0.99167,0.29167 2.15833,0.55417 3.5,0.7875 1.4,0.23333 3.00417,0.35 4.8125,0.35 z m -79.68516,-39.6375 c 1.69167,-0.46667 3.96667,-0.99167 6.825,-1.575 2.85833,-0.58333 6.35833,-0.875 10.5,-0.875 3.44167,0 6.3,0.49583 8.575,1.4875 2.33333,0.99167 4.17083,2.42083 5.5125,4.2875 1.4,1.80833 2.39167,3.99583 2.975,6.5625 0.58333,2.56667 0.875,5.39583 0.875,8.4875 l 0,25.2875 -5.6875,0 0,-23.45 c 0,-3.20833 -0.23333,-5.92083 -0.7,-8.1375 -0.40833,-2.21667 -1.1375,-4.025 -2.1875,-5.425 -0.99167,-1.4 -2.33333,-2.39167 -4.025,-2.975 -1.63333,-0.64167 -3.70417,-0.9625 -6.2125,-0.9625 -2.68333,0 -5.01667,0.14583 -7,0.4375 -1.925,0.29167 -3.17917,0.55417 -3.7625,0.7875 l 0,39.725 -5.6875,0 z m -12.34023,21.0875 c 0,3.55833 -0.525,6.79583 -1.575,9.7125 -0.99167,2.91667 -2.42083,5.39583 -4.2875,7.4375 -1.80833,2.04167 -3.96667,3.64583 -6.475,4.8125 -2.50833,1.10833 -5.27917,1.6625 -8.3125,1.6625 -3.03333,0 -5.80417,-0.55417 -8.3125,-1.6625 -2.50833,-1.16667 -4.69583,-2.77083 -6.5625,-4.8125 -1.80833,-2.04167 -3.2375,-4.52083 -4.2875,-7.4375 -0.99167,-2.91667 -1.4875,-6.15417 -1.4875,-9.7125 0,-3.55833 0.49583,-6.79583 1.4875,-9.7125 1.05,-2.91667 2.47917,-5.39583 4.2875,-7.4375 1.86667,-2.1 4.05417,-3.70417 6.5625,-4.8125 2.50833,-1.16667 5.27917,-1.75 8.3125,-1.75 3.03333,0 5.80417,0.58333 8.3125,1.75 2.50833,1.10833 4.66667,2.7125 6.475,4.8125 1.86667,2.04167 3.29583,4.52083 4.2875,7.4375 1.05,2.91667 1.575,6.15417 1.575,9.7125 z m -6.0375,0 c 0,-5.65833 -1.3125,-10.15 -3.9375,-13.475 -2.625,-3.38333 -6.18333,-5.075 -10.675,-5.075 -4.49167,0 -8.05,1.69167 -10.675,5.075 -2.625,3.325 -3.9375,7.81667 -3.9375,13.475 0,5.65833 1.3125,10.15 3.9375,13.475 2.625,3.325 6.18333,4.9875 10.675,4.9875 4.49167,0 8.05,-1.6625 10.675,-4.9875 2.625,-3.325 3.9375,-7.81667 3.9375,-13.475 z m -77.96113,-19.95 c 0.99167,-0.75833 2.56667,-1.54583 4.725,-2.3625 2.21667,-0.875 4.8125,-1.3125 7.7875,-1.3125 3.26667,0 6.15417,0.58333 8.6625,1.75 2.56667,1.16667 4.725,2.8 6.475,4.9 1.75,2.1 3.0625,4.60833 3.9375,7.525 0.93333,2.85833 1.4,6.00833 1.4,9.45 0,3.675 -0.55417,6.97083 -1.6625,9.8875 -1.05,2.91667 -2.56667,5.39583 -4.55,7.4375 -1.925,2.04167 -4.25833,3.61667 -7,4.725 -2.68333,1.05 -5.6875,1.575 -9.0125,1.575 -4.025,0 -7.35,-0.2625 -9.975,-0.7875 -2.625,-0.525 -4.78333,-1.07917 -6.475,-1.6625 l 0,-65.45 5.6875,-1.05 z m 0,37.1875 c 0.875,0.29167 2.15833,0.58333 3.85,0.875 1.75,0.23333 4.025,0.35 6.825,0.35 4.9,0 8.8375,-1.575 11.8125,-4.725 2.975,-3.20833 4.4625,-7.7875 4.4625,-13.7375 0,-2.50833 -0.2625,-4.87083 -0.7875,-7.0875 -0.525,-2.275 -1.37083,-4.22917 -2.5375,-5.8625 -1.16667,-1.69167 -2.7125,-3.03333 -4.6375,-4.025 -1.86667,-0.99167 -4.2,-1.4875 -7,-1.4875 -1.34167,0 -2.625,0.14583 -3.85,0.4375 -1.225,0.23333 -2.3625,0.55417 -3.4125,0.9625 -1.05,0.40833 -1.98333,0.84583 -2.8,1.3125 -0.75833,0.46667 -1.4,0.90417 -1.925,1.3125 z"
         sodipodi:nodetypes="sccccsccsscccssccssccscscccsscssccccscccsscccsscscsccccsscsccccscccssccccccscsccccccscssccssccscccscccccscccscccscccscccsscscsssssccscscscccssccccccscscccscsccc" />
    </g>
    <circle
       style="fill:#ee1111;fill-opacity:1;stroke:none;stroke-width:1;stroke-miterlimit:4;stroke-dasharray:none"
       id="path4151"
       cx="154.814"
       cy="1046.9437"
       r="5.4184194" />
    <g
       transform="matrix(1.0005244,0,0,1.0036892,-338.73953,720.31268)"
       style="font-style:normal;font-weight:normal;font-size:97.57592773px;line-height:125%;font-family:sans-serif;letter-spacing:0px;word-spacing:0px;fill:#333333;fill-opacity:1;stroke:none;stroke-width:1px;stroke-linecap:butt;stroke-linejoin:miter;stroke-opacity:1"
       id="g4147">
      <path
         sodipodi:nodetypes="ccccc"
         inkscape:connector-curvature="0"
         id="path4149"
         style="font-style:normal;font-variant:normal;font-weight:300;font-stretch:normal;font-size:87.5px;font-family:Ubuntu;-inkscape-font-specification:'Ubuntu Light';fill:#333333;fill-opacity:1"
         d="m 496.0073,266.47606 -5.6875,0 0,45.2375 5.6875,0 z" />
    </g>
  </g>
</svg>
