<?xml version="1.0" encoding="UTF-8" standalone="no"?>
<!-- Created with Inkscape (http://www.inkscape.org/) -->

<svg
   xmlns:dc="http://purl.org/dc/elements/1.1/"
   xmlns:cc="http://creativecommons.org/ns#"
   xmlns:rdf="http://www.w3.org/1999/02/22-rdf-syntax-ns#"
   xmlns:svg="http://www.w3.org/2000/svg"
   xmlns="http://www.w3.org/2000/svg"
   xmlns:sodipodi="http://sodipodi.sourceforge.net/DTD/sodipodi-0.dtd"
   xmlns:inkscape="http://www.inkscape.org/namespaces/inkscape"
   width="468"
   height="100"
   viewBox="0 0 468 100"
   id="svg5762"
   version="1.1"
   inkscape:version="0.92.3 (2405546, 2018-03-11)"
   sodipodi:docname="logo-full.svg">
  <defs
     id="defs5764" />
  <sodipodi:namedview
     id="base"
     pagecolor="#ffffff"
     bordercolor="#666666"
     borderopacity="1.0"
     inkscape:pageopacity="0.0"
     inkscape:pageshadow="2"
     inkscape:zoom="0.7"
     inkscape:cx="-171.63916"
     inkscape:cy="-273.12759"
     inkscape:document-units="px"
     inkscape:current-layer="layer1"
     showgrid="false"
     units="px"
     inkscape:window-width="1280"
     inkscape:window-height="961"
     inkscape:window-x="-8"
     inkscape:window-y="-8"
     inkscape:window-maximized="1"
     inkscape:snap-bbox="true"
     inkscape:bbox-nodes="true"
     inkscape:snap-bbox-midpoints="true"
     inkscape:bbox-paths="true"
     inkscape:snap-bbox-edge-midpoints="true"
     inkscape:snap-global="false"
     showguides="true"
     inkscape:guide-bbox="true" />
  <metadata
     id="metadata5767">
    <rdf:RDF>
      <cc:Work
         rdf:about="">
        <dc:format>image/svg+xml</dc:format>
        <dc:type
           rdf:resource="http://purl.org/dc/dcmitype/StillImage" />
        <dc:title />
      </cc:Work>
    </rdf:RDF>
  </metadata>
  <g
     inkscape:label="Layer 1"
     inkscape:groupmode="layer"
     id="layer1"
     transform="translate(0,-952.36216)">
    <circle
       r="6.1521764"
       cy="958.51434"
       cx="279.69339"
       id="circle972"
       style="fill:#ec3236;fill-opacity:1;stroke:none;stroke-width:4.65046406;stroke-miterlimit:4;stroke-dasharray:none;stroke-dashoffset:0;stroke-opacity:0.39215686"
       inkscape:export-filename="C:\Program Files (x86)\EasyPHP-Devserver-17\eds-www\bonisa\media\img\logo\png\logo-bonisa.png"
       inkscape:export-xdpi="96"
       inkscape:export-ydpi="96" />
    <g
       aria-label="bonisa"
       style="font-style:normal;font-variant:normal;font-weight:normal;font-stretch:normal;font-size:75.76132202px;line-height:1.25;font-family:'arial black';-inkscape-font-specification:'arial black, ';letter-spacing:0px;word-spacing:0px;fill:#1a1a1a;fill-opacity:1;stroke:none;stroke-width:1.89403296"
       id="text834"
       transform="matrix(2.1632125,0,0,2.1632125,-158.54704,-657.28776)"
       inkscape:export-filename="C:\Program Files (x86)\EasyPHP-Devserver-17\eds-www\bonisa\media\img\logo\png\logo-bonisa.png"
       inkscape:export-xdpi="96"
       inkscape:export-ydpi="96">
      <path
         id="path953"
         style="font-style:normal;font-variant:normal;font-weight:normal;font-stretch:normal;font-family:'Eight One';-inkscape-font-specification:'Eight One';fill:#1a1a1a;fill-opacity:1;stroke-width:1.89403296"
         d="m 270.39022,752.4485 c 2.62639,0 5.10126,0.50508 7.42461,1.51523 2.32335,0.95964 4.31839,2.29809 5.98514,4.01535 1.71726,1.66675 3.05571,3.66179 4.01535,5.98514 1.01015,2.32335 1.51523,4.79822 1.51523,7.42461 v 18.94033 h -3.78806 v -7.57613 c -1.71726,2.27284 -3.91434,4.11637 -6.59124,5.53058 -2.6769,1.3637 -5.53058,2.04555 -8.56103,2.04555 -2.6769,0 -5.17702,-0.47982 -7.50037,-1.43946 -2.27284,-1.01015 -4.26789,-2.3486 -5.98514,-4.01535 -1.66675,-1.71726 -3.0052,-3.71231 -4.01535,-5.98515 -0.95965,-2.32335 -1.43947,-4.82347 -1.43947,-7.50037 0,-2.62639 0.47982,-5.10126 1.43947,-7.42461 1.01015,-2.32335 2.3486,-4.31839 4.01535,-5.98514 1.71725,-1.71726 3.7123,-3.05571 5.98514,-4.01535 2.32335,-1.01015 4.82347,-1.51523 7.50037,-1.51523 z m 0,34.0926 c 2.07081,0 4.01535,-0.40406 5.83362,-1.21218 1.86878,-0.80813 3.48502,-1.89404 4.84873,-3.25774 1.3637,-1.36371 2.44961,-2.95469 3.25773,-4.77296 0.80813,-1.86878 1.21219,-3.83858 1.21219,-5.90939 0,-2.07081 -0.40406,-4.01535 -1.21219,-5.83362 -0.80812,-1.86878 -1.89403,-3.48502 -3.25773,-4.84872 -1.36371,-1.36371 -2.97995,-2.44962 -4.84873,-3.25774 -1.81827,-0.80812 -3.76281,-1.21218 -5.83362,-1.21218 -2.07081,0 -4.0406,0.40406 -5.90938,1.21218 -1.81827,0.80812 -3.40926,1.89403 -4.77297,3.25774 -1.3637,1.3637 -2.44961,2.97994 -3.25773,4.84872 -0.80812,1.81827 -1.21218,3.76281 -1.21218,5.83362 0,2.07081 0.40406,4.04061 1.21218,5.90939 0.80812,1.81827 1.89403,3.40925 3.25773,4.77296 1.36371,1.3637 2.9547,2.44961 4.77297,3.25774 1.86878,0.80812 3.83857,1.21218 5.90938,1.21218 z M 219.5887,756.23657 c -1.91929,0 -3.53553,0.60609 -4.84872,1.81827 -1.3132,1.16167 -1.9698,2.70215 -1.9698,4.62144 0,1.91929 0.6566,3.53553 1.9698,4.84872 1.31319,1.3132 2.92943,1.9698 4.84872,1.9698 h 8.33375 8.71255 c 1.41421,0 2.72741,0.27779 3.93959,0.83337 1.26269,0.50508 2.3486,1.23744 3.25773,2.19708 0.95965,0.90914 1.69201,1.99505 2.19708,3.25774 0.55559,1.21218 0.83338,2.52538 0.83338,3.93959 0,1.41421 -0.27779,2.77791 -0.83338,4.09111 -0.50507,1.26269 -1.23743,2.37385 -2.19708,3.3335 -0.90913,0.95964 -1.99504,1.74251 -3.25773,2.3486 -1.21218,0.55558 -2.52538,0.83337 -3.93959,0.83337 H 208.98212 V 786.5411 H 236.635 c 1.71725,0 3.20723,-0.6566 4.46992,-1.9698 1.31319,-1.31319 1.96979,-2.92943 1.96979,-4.84872 0,-1.91929 -0.6566,-3.45977 -1.96979,-4.62144 -1.26269,-1.21218 -2.75267,-1.81827 -4.46992,-1.81827 h -8.71255 -8.33375 c -1.51523,0 -2.92944,-0.27779 -4.24263,-0.83338 -1.26269,-0.60609 -2.37386,-1.38896 -3.3335,-2.3486 -0.95965,-0.95965 -1.71726,-2.07081 -2.27284,-3.3335 -0.50507,-1.31319 -0.75761,-2.6769 -0.75761,-4.09111 0,-1.41421 0.25254,-2.72741 0.75761,-3.93959 0.55558,-1.26269 1.31319,-2.3486 2.27284,-3.25774 0.95964,-0.95964 2.07081,-1.692 3.3335,-2.19707 1.31319,-0.55559 2.7274,-0.83338 4.24263,-0.83338 h 27.27408 v 3.78807 z m -15.10491,34.09259 h -3.78807 V 752.4485 h 3.78807 z M 177.16828,752.4485 c 2.57589,0 5.00025,0.50508 7.27309,1.51523 2.27284,1.01015 4.26789,2.3991 5.98514,4.16687 1.76777,1.71726 3.15673,3.71231 4.16688,5.98515 1.01015,2.27283 1.51522,4.69719 1.51522,7.27308 v 18.94033 h -3.78806 v -18.94033 c 0,-2.07081 -0.40406,-4.01535 -1.21219,-5.83362 -0.80812,-1.86878 -1.89403,-3.48502 -3.25773,-4.84872 -1.36371,-1.36371 -2.97995,-2.44962 -4.84873,-3.25774 -1.81827,-0.80812 -3.76281,-1.21218 -5.83362,-1.21218 -2.07081,0 -4.0406,0.40406 -5.90938,1.21218 -1.81827,0.80812 -3.40926,1.89403 -4.77296,3.25774 -1.36371,1.3637 -2.44962,2.97994 -3.25774,4.84872 -0.80812,1.81827 -1.21218,3.76281 -1.21218,5.83362 v 18.94033 h -3.78807 v -18.94033 c 0,-2.57589 0.47982,-5.00025 1.43947,-7.27308 1.01015,-2.27284 2.3486,-4.26789 4.01535,-5.98515 1.71725,-1.76777 3.7123,-3.15672 5.98514,-4.16687 2.32335,-1.01015 4.82347,-1.51523 7.50037,-1.51523 z m -84.935545,0 c 2.626392,0 5.101262,0.50508 7.424609,1.51523 2.323346,0.95964 4.318396,2.29809 5.985146,4.01535 1.71725,1.66675 3.0557,3.66179 4.01535,5.98514 1.01015,2.32335 1.51523,4.79822 1.51523,7.42461 0,2.6769 -0.50508,5.17702 -1.51523,7.50037 -0.95965,2.27284 -2.2981,4.26789 -4.01535,5.98515 -1.66675,1.66675 -3.6618,3.0052 -5.985146,4.01535 -2.323347,0.95964 -4.798217,1.43946 -7.424609,1.43946 -2.6769,0 -5.177024,-0.47982 -7.500371,-1.43946 -2.27284,-1.01015 -4.267888,-2.3486 -5.985145,-4.01535 -1.666749,-1.71726 -3.005199,-3.71231 -4.01535,-5.98515 -0.959643,-2.32335 -1.439465,-4.82347 -1.439465,-7.50037 v -27.28721 h 3.788066 v 15.92301 c 1.717257,-2.27284 3.914335,-4.09111 6.591235,-5.45481 2.6769,-1.41421 5.530577,-2.12132 8.56103,-2.12132 z m 0,34.0926 c 2.070809,0 4.01535,-0.40406 5.833621,-1.21218 1.868783,-0.80813 3.485024,-1.89404 4.848724,-3.25774 1.36371,-1.36371 2.44962,-2.95469 3.25774,-4.77296 0.80812,-1.86878 1.21218,-3.83858 1.21218,-5.90939 0,-2.07081 -0.40406,-4.01535 -1.21218,-5.83362 -0.80812,-1.86878 -1.89403,-3.48502 -3.25774,-4.84872 -1.3637,-1.36371 -2.979941,-2.44962 -4.848724,-3.25774 -1.818271,-0.80812 -3.762812,-1.21218 -5.833621,-1.21218 -2.07081,0 -4.040604,0.40406 -5.909383,1.21218 -1.818272,0.80812 -3.40926,1.89403 -4.772964,3.25774 -1.363703,1.3637 -2.449616,2.97994 -3.257737,4.84872 -0.808121,1.81827 -1.212181,3.76281 -1.212181,5.83362 0,2.07081 0.40406,4.04061 1.212181,5.90939 0.808121,1.81827 1.894034,3.40925 3.257737,4.77296 1.363704,1.3637 2.954692,2.44961 4.772964,3.25774 1.868779,0.80812 3.838573,1.21218 5.909383,1.21218 z"
         inkscape:connector-curvature="0"
         sodipodi:nodetypes="scccsccccscccscccsscccscscscscscccsscscscscccscccsccscscscscscscccsccscccccscccsccscscscccsccscccsscccscccscccsccccsscscscccscccscccs" />
    </g>
    <g
       id="g964"
       transform="matrix(0.81215226,0,0,0.81215226,-181.19208,328.94745)"
       inkscape:export-filename="C:\Program Files (x86)\EasyPHP-Devserver-17\eds-www\bonisa\media\img\logo\png\logo-bonisa.png"
       inkscape:export-xdpi="96"
       inkscape:export-ydpi="96">
      <rect
         style="fill:#ec3236;fill-opacity:1;stroke:none;stroke-width:1.88976383;stroke-miterlimit:4;stroke-dasharray:none;stroke-dashoffset:0;stroke-opacity:0.39215686"
         id="rect958"
         width="15.575732"
         height="25"
         x="410.31253"
         y="828.23779"
         ry="7.7673998" />
      <rect
         style="fill:#ec3236;fill-opacity:1;stroke:none;stroke-width:1.88976383;stroke-miterlimit:4;stroke-dasharray:none;stroke-dashoffset:0;stroke-opacity:0.39215686"
         id="rect960"
         width="15.575732"
         height="100"
         x="348.00958"
         y="790.73779"
         ry="7.7673998" />
      <rect
         style="fill:#ec3236;fill-opacity:1;stroke:none;stroke-width:1.88976383;stroke-miterlimit:4;stroke-dasharray:none;stroke-dashoffset:0;stroke-opacity:0.39215686"
         id="rect962"
         width="15.575732"
         height="62.5"
         x="379.16107"
         y="809.48779"
         ry="7.7673998" />
    </g>
  </g>
</svg>
