<?xml version="1.0" encoding="UTF-8" standalone="no"?>
<!-- Created with Inkscape (http://www.inkscape.org/) -->

<svg
   xmlns:dc="http://purl.org/dc/elements/1.1/"
   xmlns:cc="http://creativecommons.org/ns#"
   xmlns:rdf="http://www.w3.org/1999/02/22-rdf-syntax-ns#"
   xmlns:svg="http://www.w3.org/2000/svg"
   xmlns="http://www.w3.org/2000/svg"
   xmlns:sodipodi="http://sodipodi.sourceforge.net/DTD/sodipodi-0.dtd"
   xmlns:inkscape="http://www.inkscape.org/namespaces/inkscape"
   width="55"
   height="71"
   viewBox="0 0 55 71"
   id="svg5762"
   version="1.1"
   inkscape:version="0.91 r13725"
   sodipodi:docname="logo-letters.svg">
  <defs
     id="defs5764" />
  <sodipodi:namedview
     id="base"
     pagecolor="#ffffff"
     bordercolor="#666666"
     borderopacity="1.0"
     inkscape:pageopacity="0.0"
     inkscape:pageshadow="2"
     inkscape:zoom="0.98994949"
     inkscape:cx="175.63098"
     inkscape:cy="27.845551"
     inkscape:document-units="px"
     inkscape:current-layer="layer1"
     showgrid="false"
     units="px"
     inkscape:window-width="1280"
     inkscape:window-height="709"
     inkscape:window-x="0"
     inkscape:window-y="0"
     inkscape:window-maximized="1"
     showguides="true"
     inkscape:guide-bbox="true">
    <sodipodi:guide
       position="264.28572,79.285715"
       orientation="0,1"
       id="guide4222" />
  </sodipodi:namedview>
  <metadata
     id="metadata5767">
    <rdf:RDF>
      <cc:Work
         rdf:about="">
        <dc:format>image/svg+xml</dc:format>
        <dc:type
           rdf:resource="http://purl.org/dc/dcmitype/StillImage" />
        <dc:title></dc:title>
      </cc:Work>
    </rdf:RDF>
  </metadata>
  <g
     inkscape:label="Layer 1"
     inkscape:groupmode="layer"
     id="layer1"
     transform="translate(0,-981.36216)">
    <g
       id="g4210"
       transform="matrix(1.0359856,0,0,1.0046184,-224.03958,10.567927)"
       inkscape:export-xdpi="90"
       inkscape:export-ydpi="90">
      <circle
         style="fill:#ee1111;fill-opacity:1;stroke:none;stroke-width:1;stroke-miterlimit:4;stroke-dasharray:none"
         id="circle4212"
         cx="263.92856"
         cy="1031.5865"
         r="5.4184194" />
      <g
         transform="matrix(1.0005244,0,0,1.0036892,-229.62497,704.95541)"
         style="font-style:normal;font-weight:normal;font-size:97.57592773px;line-height:125%;font-family:sans-serif;letter-spacing:0px;word-spacing:0px;fill:#333333;fill-opacity:1;stroke:none;stroke-width:1px;stroke-linecap:butt;stroke-linejoin:miter;stroke-opacity:1"
         id="g4214">
        <path
           sodipodi:nodetypes="ccccc"
           inkscape:connector-curvature="0"
           id="path4216"
           style="font-style:normal;font-variant:normal;font-weight:300;font-stretch:normal;font-size:87.5px;font-family:Ubuntu;-inkscape-font-specification:'Ubuntu Light';fill:#333333;fill-opacity:1"
           d="m 496.0073,266.47606 -5.6875,0 0,45.2375 5.6875,0 z" />
      </g>
    </g>
    <g
       id="g4218"
       style="font-style:normal;font-weight:normal;font-size:97.57592773px;line-height:125%;font-family:sans-serif;letter-spacing:0px;word-spacing:0px;fill:#333333;fill-opacity:1;stroke:none;stroke-width:1px;stroke-linecap:butt;stroke-linejoin:miter;stroke-opacity:1"
       transform="matrix(1.0365289,0,0,1.0083246,-464.1477,722.367)"
       inkscape:export-xdpi="90"
       inkscape:export-ydpi="90">
      <path
         sodipodi:nodetypes="ccscscscccssccccccscscccscsccc"
         d="m 453.47793,282.23193 c 0.99167,-0.75833 2.56667,-1.54583 4.725,-2.3625 2.21667,-0.875 4.8125,-1.3125 7.7875,-1.3125 3.26667,0 6.15417,0.58333 8.6625,1.75 2.56667,1.16667 4.725,2.8 6.475,4.9 1.75,2.1 3.0625,4.60833 3.9375,7.525 0.93333,2.85833 1.4,6.00833 1.4,9.45 0,3.675 -0.55417,6.97083 -1.6625,9.8875 -1.05,2.91667 -2.56667,5.39583 -4.55,7.4375 -1.925,2.04167 -4.25833,3.61667 -7,4.725 -2.68333,1.05 -5.6875,1.575 -9.0125,1.575 -4.025,0 -7.35,-0.2625 -9.975,-0.7875 -2.625,-0.525 -4.78333,-1.07917 -6.475,-1.6625 l 0,-65.45 5.6875,-1.05 z m 0,37.1875 c 0.875,0.29167 2.15833,0.58333 3.85,0.875 1.75,0.23333 4.025,0.35 6.825,0.35 4.9,0 8.8375,-1.575 11.8125,-4.725 2.975,-3.20833 4.4625,-7.7875 4.4625,-13.7375 0,-2.50833 -0.2625,-4.87083 -0.7875,-7.0875 -0.525,-2.275 -1.37083,-4.22917 -2.5375,-5.8625 -1.16667,-1.69167 -2.7125,-3.03333 -4.6375,-4.025 -1.86667,-0.99167 -4.2,-1.4875 -7,-1.4875 -1.34167,0 -2.625,0.14583 -3.85,0.4375 -1.225,0.23333 -2.3625,0.55417 -3.4125,0.9625 -1.05,0.40833 -1.98333,0.84583 -2.8,1.3125 -0.75833,0.46667 -1.4,0.90417 -1.925,1.3125 z"
         style="font-style:normal;font-variant:normal;font-weight:300;font-stretch:normal;font-size:87.5px;font-family:Ubuntu;-inkscape-font-specification:'Ubuntu Light';fill:#333333;fill-opacity:1"
         id="path4220"
         inkscape:connector-curvature="0" />
    </g>
  </g>
</svg>
