<?xml version="1.0" encoding="UTF-8" standalone="no"?>
<!-- Created with Inkscape (http://www.inkscape.org/) -->

<svg
   xmlns:dc="http://purl.org/dc/elements/1.1/"
   xmlns:cc="http://creativecommons.org/ns#"
   xmlns:rdf="http://www.w3.org/1999/02/22-rdf-syntax-ns#"
   xmlns:svg="http://www.w3.org/2000/svg"
   xmlns="http://www.w3.org/2000/svg"
   xmlns:sodipodi="http://sodipodi.sourceforge.net/DTD/sodipodi-0.dtd"
   xmlns:inkscape="http://www.inkscape.org/namespaces/inkscape"
   width="77"
   height="100"
   viewBox="0 0 77 100"
   id="svg5762"
   version="1.1"
   inkscape:version="0.92.3 (2405546, 2018-03-11)"
   sodipodi:docname="logo-icon.svg">
  <defs
     id="defs5764" />
  <sodipodi:namedview
     id="base"
     pagecolor="#ffffff"
     bordercolor="#666666"
     borderopacity="1.0"
     inkscape:pageopacity="0.0"
     inkscape:pageshadow="2"
     inkscape:zoom="2.8"
     inkscape:cx="89.723237"
     inkscape:cy="19.935576"
     inkscape:document-units="px"
     inkscape:current-layer="layer1"
     showgrid="false"
     units="px"
     inkscape:window-width="1280"
     inkscape:window-height="961"
     inkscape:window-x="-8"
     inkscape:window-y="-8"
     inkscape:window-maximized="1" />
  <metadata
     id="metadata5767">
    <rdf:RDF>
      <cc:Work
         rdf:about="">
        <dc:format>image/svg+xml</dc:format>
        <dc:type
           rdf:resource="http://purl.org/dc/dcmitype/StillImage" />
        <dc:title></dc:title>
      </cc:Work>
    </rdf:RDF>
  </metadata>
  <g
     inkscape:label="Layer 1"
     inkscape:groupmode="layer"
     id="layer1"
     transform="translate(0,-952.36216)">
    <path
       id="circle838"
       style="fill:#ec3236;fill-opacity:1;stroke:none;stroke-width:4.65046406;stroke-miterlimit:4;stroke-dasharray:none;stroke-dashoffset:0;stroke-opacity:0.39215686"
       d="m 38.18099,971.11218 h 0.0409 c 4.30314,0 7.7674,3.46426 7.7674,7.7674 v 46.96522 c 0,4.3031 -3.46426,7.7674 -7.7674,7.7674 h -0.0409 c -4.30314,0 -7.7674,-3.4643 -7.7674,-7.7674 v -46.96522 c 0,-4.30314 3.46426,-7.7674 7.7674,-7.7674 z m -30.41359,-18.75 h 0.0409 c 4.30314,0 7.7674,3.46426 7.7674,7.7674 v 84.46522 c 0,4.3031 -3.46426,7.7674 -7.7674,7.7674 H 7.7674 C 3.46426,1052.3622 0,1048.8979 0,1044.5948 v -84.46522 c 0,-4.30314 3.46426,-7.7674 7.7674,-7.7674 z m 60.82718,37.5 h 0.0409 c 4.30314,0 7.7674,3.46426 7.7674,7.7674 v 9.46522 c 0,4.3031 -3.46426,7.7674 -7.7674,7.7674 h -0.0409 c -4.30314,0 -7.7674,-3.4643 -7.7674,-7.7674 v -9.46522 c 0,-4.30314 3.46426,-7.7674 7.7674,-7.7674 z"
       inkscape:connector-curvature="0"
       sodipodi:nodetypes="sssssssssssssssssssssssssss" />
  </g>
</svg>
